<?xml version="1.0" encoding="UTF-8" standalone="no"?>
<!-- Generator: Adobe Illustrator 18.0.0, SVG Export Plug-In . SVG Version: 6.00 Build 0)  -->

<svg
   xmlns:dc="http://purl.org/dc/elements/1.1/"
   xmlns:cc="http://creativecommons.org/ns#"
   xmlns:rdf="http://www.w3.org/1999/02/22-rdf-syntax-ns#"
   xmlns:svg="http://www.w3.org/2000/svg"
   xmlns="http://www.w3.org/2000/svg"
   xmlns:sodipodi="http://sodipodi.sourceforge.net/DTD/sodipodi-0.dtd"
   xmlns:inkscape="http://www.inkscape.org/namespaces/inkscape"
   version="1.1"
   id="Capa_1"
   x="0px"
   y="0px"
   viewBox="0 0 100 100"
   xml:space="preserve"
   inkscape:version="0.48.4 r9939"
   width="100%"
   height="100%"
   sodipodi:docname="Alteração utilizador.svg"
   inkscape:export-filename="C:\Users\Adelino.UTILSOFT\Desktop\Novos icons\Alteração utilizador.png"
   inkscape:export-xdpi="28.799999"
   inkscape:export-ydpi="28.799999"><metadata
   id="metadata4408"><rdf:RDF><cc:Work
       rdf:about=""><dc:format>image/svg+xml</dc:format><dc:type
         rdf:resource="http://purl.org/dc/dcmitype/StillImage" /><dc:title></dc:title></cc:Work></rdf:RDF></metadata><defs
   id="defs4406" /><sodipodi:namedview
   pagecolor="#ffffff"
   bordercolor="#666666"
   borderopacity="1"
   objecttolerance="10"
   gridtolerance="10"
   guidetolerance="10"
   inkscape:pageopacity="0"
   inkscape:pageshadow="2"
   inkscape:window-width="1280"
   inkscape:window-height="961"
   id="namedview4404"
   showgrid="false"
   inkscape:zoom="1.9262672"
   inkscape:cx="100.64714"
   inkscape:cy="79.966361"
   inkscape:window-x="-8"
   inkscape:window-y="-8"
   inkscape:window-maximized="1"
   inkscape:current-layer="Capa_1" />
<g
   id="g4362"
   transform="matrix(0.18268518,0,0,0.18268518,5.2359319,5.2359196)"
   style="fill:#ffffff">
	<path
   d="m 178.414,467.038 c 4.889,-27.122 16.416,-52.318 33.127,-73.795 -3.246,-3.229 -6.609,-6.334 -10.211,-9.164 -4.908,-3.884 -9.164,-8.431 -12.795,-13.421 -17.025,15.069 -37.912,24.081 -60.545,24.081 -22.631,0 -43.518,-9.012 -60.539,-24.081 -3.631,4.982 -7.875,9.522 -12.789,13.421 -22,17.324 -37.877,42.337 -43.154,71.603 l -2.231,12.456 c -0.973,5.427 0.508,11.017 4.051,15.247 3.541,4.24 8.779,6.682 14.301,6.682 h 152.525 c -2.369,-7.352 -3.136,-15.189 -1.74,-23.029 z"
   id="path4364"
   inkscape:connector-curvature="0"
   style="fill:#ffffff" />
	<path
   d="m 430.906,389.95 c -4.061,-3.195 -7.611,-6.874 -10.92,-10.75 -20.691,19.073 -46.271,30.512 -74.031,30.512 -27.771,0 -53.348,-11.439 -74.049,-30.494 -3.297,3.858 -6.84,7.53 -10.9,10.732 -25.5,20.078 -43.877,49.043 -49.982,82.962 -0.76,4.253 0.404,8.623 3.178,11.931 2.768,3.31 6.869,5.225 11.189,5.225 h 7.807 233.291 c 4.32,0 8.422,-1.915 11.184,-5.225 2.779,-3.308 3.941,-7.678 3.184,-11.931 -6.132,-33.919 -24.48,-62.884 -49.951,-82.962 z"
   id="path4366"
   inkscape:connector-curvature="0"
   style="fill:#ffffff" />
	<path
   d="m 255.035,256.895 c 0,66.111 40.736,119.685 90.92,119.685 50.178,0 90.873,-53.573 90.873,-119.685 0,-66.079 -40.695,-119.652 -90.873,-119.652 -50.183,-0.001 -90.92,53.572 -90.92,119.652 z"
   id="path4368"
   inkscape:connector-curvature="0"
   style="fill:#ffffff" />
	<path
   d="m 127.99,361.606 c 38.68,0 70.018,-41.27 70.018,-92.148 0,-50.904 -31.338,-92.166 -70.018,-92.166 -38.625,0 -69.996,41.262 -69.996,92.166 0,50.879 31.371,92.148 69.996,92.148 z"
   id="path4370"
   inkscape:connector-curvature="0"
   style="fill:#ffffff" />
	<path
   d="m 109.848,111.877 76.213,0.048 c 6.994,0.01 13.266,-4.221 15.934,-10.637 2.668,-6.446 1.191,-13.864 -3.752,-18.798 L 181.817,66.06 c 19.813,-10.677 42.082,-16.364 65.232,-16.364 36.814,0 71.43,14.334 97.459,40.364 4.853,4.854 11.209,7.28 17.568,7.28 6.355,0 12.717,-2.427 17.57,-7.28 9.707,-9.698 9.707,-25.431 0,-35.139 C 344.233,19.501 297.139,0 247.049,0 210.504,0 175.61,10.49 145.615,29.862 L 122.02,6.268 C 117.092,1.334 109.694,-0.14 103.204,2.521 96.784,5.183 92.595,11.446 92.595,18.458 v 76.19 c -0.001,9.497 7.729,17.229 17.253,17.229 z"
   id="path4372"
   inkscape:connector-curvature="0"
   style="fill:#ffffff" />
</g>
<g
   id="g4374"
   transform="translate(0,-390.06701)">
</g>
<g
   id="g4376"
   transform="translate(0,-390.06701)">
</g>
<g
   id="g4378"
   transform="translate(0,-390.06701)">
</g>
<g
   id="g4380"
   transform="translate(0,-390.06701)">
</g>
<g
   id="g4382"
   transform="translate(0,-390.06701)">
</g>
<g
   id="g4384"
   transform="translate(0,-390.06701)">
</g>
<g
   id="g4386"
   transform="translate(0,-390.06701)">
</g>
<g
   id="g4388"
   transform="translate(0,-390.06701)">
</g>
<g
   id="g4390"
   transform="translate(0,-390.06701)">
</g>
<g
   id="g4392"
   transform="translate(0,-390.06701)">
</g>
<g
   id="g4394"
   transform="translate(0,-390.06701)">
</g>
<g
   id="g4396"
   transform="translate(0,-390.06701)">
</g>
<g
   id="g4398"
   transform="translate(0,-390.06701)">
</g>
<g
   id="g4400"
   transform="translate(0,-390.06701)">
</g>
<g
   id="g4402"
   transform="translate(0,-390.06701)">
</g>
</svg>