<?xml version="1.0" encoding="UTF-8" standalone="no"?>
<!-- Svg Vector Icons : http://www.onlinewebfonts.com/icon -->

<svg
   xmlns:dc="http://purl.org/dc/elements/1.1/"
   xmlns:cc="http://creativecommons.org/ns#"
   xmlns:rdf="http://www.w3.org/1999/02/22-rdf-syntax-ns#"
   xmlns:svg="http://www.w3.org/2000/svg"
   xmlns="http://www.w3.org/2000/svg"
   xmlns:sodipodi="http://sodipodi.sourceforge.net/DTD/sodipodi-0.dtd"
   xmlns:inkscape="http://www.inkscape.org/namespaces/inkscape"
   version="1.1"
   x="0px"
   y="0px"
   viewBox="0 0 1000 1000"
   enable-background="new 0 0 1000 1000"
   xml:space="preserve"
   id="svg4023"
   inkscape:version="0.48.4 r9939"
   width="100%"
   height="100%"
   sodipodi:docname="Calendário.svg"
   inkscape:export-filename="C:\Users\Adelino.UTILSOFT\Desktop\Novos icons\Calendário.png"
   inkscape:export-xdpi="2.8800001"
   inkscape:export-ydpi="2.8800001"><defs
   id="defs4033" /><sodipodi:namedview
   pagecolor="#ffffff"
   bordercolor="#666666"
   borderopacity="1"
   objecttolerance="10"
   gridtolerance="10"
   guidetolerance="10"
   inkscape:pageopacity="0"
   inkscape:pageshadow="2"
   inkscape:window-width="1920"
   inkscape:window-height="1017"
   id="namedview4031"
   showgrid="false"
   inkscape:zoom="0.236"
   inkscape:cx="137.71186"
   inkscape:cy="500"
   inkscape:window-x="-8"
   inkscape:window-y="-8"
   inkscape:window-maximized="1"
   inkscape:current-layer="svg4023" />
<metadata
   id="metadata4025"> Svg Vector Icons : http://www.onlinewebfonts.com/icon <rdf:RDF><cc:Work
     rdf:about=""><dc:format>image/svg+xml</dc:format><dc:type
       rdf:resource="http://purl.org/dc/dcmitype/StillImage" /><dc:title></dc:title></cc:Work></rdf:RDF></metadata>
<g
   id="g4027"
   style="fill:#ffffff"><path
     d="m 297.25,479.75 -101.4,0 0,-101.4 101.4,0 z m 0,169 -101.4,0 0,-101.5 101.4,0 z m 0,168.9 -101.4,0 0,-101.3 101.4,0 z m 168.9,-337.9 -101.3,0 0,-101.4 101.4,0 0,101.4 z m 0,169 -101.3,0 0,-101.5 101.4,0 0,101.5 z m 0,168.9 -101.3,0 0,-101.3 101.4,0 0,101.3 z m 169,-337.9 -101.4,0 0,-101.4 101.4,0 z m 169,0 -101.4,0 0,-101.4 101.4,0 z"
     id="path4029-7"
     inkscape:connector-curvature="0"
     sodipodi:nodetypes="ccccccccccccccccccccccccccccccccccccccccccc"
     style="fill:#ffffff" /><path
     d="m 871.7,989.99999 -743.5,0 c -37.300001,0 -67.600001,-30.3 -67.600001,-67.59997 l 0,-743.5 c 0,-37.4 30.3,-67.6 67.600001,-67.6 l 67.6,0 0,33.8 c 0,56 45.4,101.4 101.4,101.4 55.9,0 101.4,-45.4 101.4,-101.4 l 0,-33.7 202.8,0 0,33.8 c 0,56 45.4,101.4 101.4,101.4 55.9,0 101.4,-45.4 101.4,-101.4 l 0,-33.8 67.6,0 c 37.3,0 67.6,30.3 67.6,67.6 l 0,743.4 c -0.2,37.29997 -30.4,67.59997 -67.7,67.59997 z m 4.5,-696.19997 -752.5,0 0,632.3 752.5,0 z m -174.6,-81.1 c -36.8,0 -66.5,-29.8 -66.5,-66.5 l 0,-69.700008 c 0,-36.799998 29.7,-66.499998 66.5,-66.499998 36.8,0 66.5,29.7 66.5,66.499998 l 0,69.700008 c 0.1,36.7 -29.7,66.5 -66.5,66.5 z m -405.5,0 c -36.8,0 -66.5,-29.8 -66.5,-66.5 l 0,-69.700008 c 0,-36.799998 29.7,-66.499998 66.5,-66.499998 36.8,0 66.5,29.7 66.5,66.499998 l 0,69.700008 c 0.1,36.7 -29.7,66.5 -66.5,66.5 z"
     id="path4029-4"
     inkscape:connector-curvature="0"
     sodipodi:nodetypes="csssscsssccssscssccccccccccccccsccssss"
     style="fill:#ffffff" /></g>
<path
   d="m 798.55859,680.04176 c 0,75.01589 -61.02464,136.04044 -136.04044,136.04044 -157.53419,-18.54486 -171.66489,-213.65887 -47.59542,-263.52367 -1.93633,-2.56091 -3.12304,-5.74643 -3.12304,-9.24425 0,-8.30733 6.74575,-15.17807 15.05311,-15.17807 l 71.26822,0 c 8.30726,0 15.05311,6.80828 15.05311,15.17807 0,3.43536 -1.18681,6.74581 -3.12303,9.30671 12.55472,4.6846 24.23495,11.18054 34.66589,19.17558 l 7.43288,-7.43288 c 5.87136,-5.87135 15.42792,-5.87135 21.29928,0 5.87136,5.87135 5.87136,15.42791 0,21.29926 l -6.9332,6.93318 c 20.05008,23.61032 32.04264,54.15383 32.04264,87.44563 z m -30.1688,0 c 0,-58.40118 -47.53294,-105.87167 -105.87164,-105.87167 -58.40117,0 -105.87173,47.53294 -105.87173,105.87167 0,58.40121 47.53294,105.8717 105.87173,105.8717 58.40118,0.0625 105.87164,-47.47049 105.87164,-105.8717 z m -85.50933,-37.22685 -5.62152,5.49659 0,-23.36048 c 0,-8.30734 -6.74575,-15.05314 -15.05311,-15.05314 -8.30736,0 -15.05311,6.7458 -15.05311,15.05314 l 0,59.71287 c 0,2.06123 0.56206,3.99752 1.31168,5.8089 0.74952,1.74891 1.87384,3.43535 3.31039,4.87196 1.49903,1.49907 3.248,2.56091 5.05936,3.31045 l 0,0 c 0,0 0,-0.37477 0.063,-0.37477 1.56152,0.62462 3.31039,0.68707 5.12184,0.68707 0,0 0,0 0.062,0 0.18746,0 0.31233,0 0.49968,0 0.18746,0 0.31232,0 0.49978,0 0,0 0,0 0.062,0 1.81146,0 3.56033,-0.0625 5.18433,-0.74952 1.81135,-0.74954 3.49784,-1.62401 4.93439,-3.12307 l 31.23064,-31.10566 c 5.87136,-5.87135 5.80888,-15.36545 -0.063,-21.29926 -5.99633,-5.80889 -15.61527,-5.74643 -21.54912,0.12492 z"
   id="path3964"
   inkscape:connector-curvature="0"
   sodipodi:nodetypes="sccssssccssscsssscsccsssscsccccsscsccccc"
   style="fill:#ffffff" /></svg>