<?xml version="1.0" encoding="UTF-8" standalone="no"?>
<!-- Svg Vector Icons : http://www.onlinewebfonts.com/icon -->

<svg
   xmlns:dc="http://purl.org/dc/elements/1.1/"
   xmlns:cc="http://creativecommons.org/ns#"
   xmlns:rdf="http://www.w3.org/1999/02/22-rdf-syntax-ns#"
   xmlns:svg="http://www.w3.org/2000/svg"
   xmlns="http://www.w3.org/2000/svg"
   xmlns:sodipodi="http://sodipodi.sourceforge.net/DTD/sodipodi-0.dtd"
   xmlns:inkscape="http://www.inkscape.org/namespaces/inkscape"
   version="1.1"
   x="0px"
   y="0px"
   viewBox="0 0 1000 1000"
   enable-background="new 0 0 1000 1000"
   xml:space="preserve"
   id="svg3041"
   inkscape:version="0.48.4 r9939"
   width="100%"
   height="100%"
   sodipodi:docname="Database config.svg"><defs
   id="defs3095" /><sodipodi:namedview
   pagecolor="#ffffff"
   bordercolor="#666666"
   borderopacity="1"
   objecttolerance="10"
   gridtolerance="10"
   guidetolerance="10"
   inkscape:pageopacity="0"
   inkscape:pageshadow="2"
   inkscape:window-width="1920"
   inkscape:window-height="1017"
   id="namedview3093"
   showgrid="false"
   inkscape:zoom="0.83"
   inkscape:cx="500"
   inkscape:cy="500"
   inkscape:window-x="-8"
   inkscape:window-y="-8"
   inkscape:window-maximized="1"
   inkscape:current-layer="svg3041" />
<metadata
   id="metadata3043"> Svg Vector Icons : http://www.onlinewebfonts.com/icon <rdf:RDF><cc:Work
     rdf:about=""><dc:format>image/svg+xml</dc:format><dc:type
       rdf:resource="http://purl.org/dc/dcmitype/StillImage" /><dc:title></dc:title></cc:Work></rdf:RDF></metadata>
<g
   id="g3047"
   style="fill:#cccccc"
   inkscape:export-filename="C:\Users\Adelino.UTILSOFT\Desktop\cFG.png"
   inkscape:export-xdpi="36.73"
   inkscape:export-ydpi="36.73"><g
     id="g3049"
     style="fill:#cccccc"><ellipse
       sodipodi:ry="182.7"
       sodipodi:rx="410.5"
       sodipodi:cy="192.7"
       sodipodi:cx="420.5"
       id="ellipse3051"
       ry="182.7"
       rx="410.5"
       cy="192.7"
       cx="420.5"
       style="fill:#cccccc" /><path
       inkscape:connector-curvature="0"
       id="path3053"
       d="m 515.6,863.8 c -28.8,-7.3 -50.3,-30.8 -55.7,-59.5 -13,0.6 -26.1,0.9 -39.4,0.9 C 193.8,805.2 10,723.5 10,622.5 c 0,42.1 0,70.3 0,139.7 0,101 183.8,182.7 410.5,182.7 32.6,0 64.2,-1.9 94.6,-5.1 -13.1,-23.4 -13.8,-52.3 0.5,-76 z"
       style="fill:#cccccc" /><path
       inkscape:connector-curvature="0"
       id="path3055"
       d="m 420.5,755.1 c 12.8,0 25.4,-0.3 38,-0.8 v -21 c 0,-35.1 24,-65.3 57.5,-73.6 -8.8,-14.9 -12,-31.9 -9.9,-48.3 -27.6,2.6 -56.2,4 -85.5,4 C 193.8,615.4 10,533.7 10,432.7 c 0,42.1 0,70.3 0,139.7 0,100.9 183.8,182.7 410.5,182.7 z"
       style="fill:#cccccc" /><path
       inkscape:connector-curvature="0"
       id="path3057"
       d="m 420.5,565.3 c 40.5,0 79.7,-2.7 116.7,-7.6 L 567.9,527 c 14.7,-14.7 34.1,-22.2 53.7,-22.2 13.2,0 26.4,3.4 38.3,10.4 8.7,-33.1 38.6,-56.6 73.4,-56.6 h 56.9 c 1,0 2,0.2 3,0.3 24,-23.2 37.7,-49 37.7,-76.2 0,-37.1 0,-75.7 0,-139.7 0,100.9 -183.8,182.7 -410.5,182.7 C 193.7,425.6 10,343.8 10,242.8 c 0,42.1 0,70.3 0,139.7 0,101 183.8,182.8 410.5,182.8 z"
       style="fill:#cccccc" /></g><g
     id="g3059"
     style="fill:#cccccc"><path
       inkscape:connector-curvature="0"
       id="path3061"
       d="m 990,790.2 v -56.9 l -67.8,-11.1 c -4,-16 -10.3,-31.1 -18.6,-45 l 39.5,-56.3 -40.3,-40.3 -55.6,40 c -13.9,-8.4 -29,-14.8 -45.2,-18.8 l -11.8,-67.4 h -56.9 l -11,67.2 c -16.2,3.9 -31.4,10.3 -45.3,18.6 l -55.4,-39.6 -40.3,40.3 39,55.7 c -8.5,14 -14.9,29.2 -18.9,45.5 l -66.9,11.1 v 56.9 l 66.9,11.8 c 4,16.3 10.4,31.5 18.9,45.5 l -39.5,55.2 40.3,40.3 55.8,-39.1 c 14,8.4 29.2,14.7 45.3,18.7 l 11.2,67.2 h 56.9 l 12,-67.4 c 16.1,-4 31.2,-10.5 45.1,-18.9 l 56.2,39.4 40.2,-40.3 -40.1,-55.7 c 8.3,-13.9 14.6,-29 18.6,-45.1 L 990,790.2 z m -227.8,51.4 c -43.8,0 -79.4,-35.5 -79.4,-79.4 0,-43.8 35.6,-79.4 79.4,-79.4 43.9,0 79.4,35.6 79.4,79.4 0,43.9 -35.5,79.4 -79.4,79.4 z"
       style="fill:#cccccc" /></g></g><g
   id="g3063" /><g
   id="g3065" /><g
   id="g3067" /><g
   id="g3069" /><g
   id="g3071" /><g
   id="g3073" /><g
   id="g3075" /><g
   id="g3077" /><g
   id="g3079" /><g
   id="g3081" /><g
   id="g3083" /><g
   id="g3085" /><g
   id="g3087" /><g
   id="g3089" /><g
   id="g3091" />
</svg>