<?xml version="1.0" encoding="UTF-8" standalone="no"?>
<!-- Svg Vector Icons : http://www.onlinewebfonts.com/icon -->

<svg
   xmlns:dc="http://purl.org/dc/elements/1.1/"
   xmlns:cc="http://creativecommons.org/ns#"
   xmlns:rdf="http://www.w3.org/1999/02/22-rdf-syntax-ns#"
   xmlns:svg="http://www.w3.org/2000/svg"
   xmlns="http://www.w3.org/2000/svg"
   xmlns:sodipodi="http://sodipodi.sourceforge.net/DTD/sodipodi-0.dtd"
   xmlns:inkscape="http://www.inkscape.org/namespaces/inkscape"
   version="1.1"
   x="0px"
   y="0px"
   viewBox="0 0 1000 1000"
   enable-background="new 0 0 1000 1000"
   xml:space="preserve"
   id="svg3064"
   inkscape:version="0.48.4 r9939"
   width="100%"
   height="100%"
   sodipodi:docname="Editar.svg"
   inkscape:export-filename="C:\Users\Adelino.UTILSOFT\Desktop\Novos icons\Editar.png"
   inkscape:export-xdpi="1.4400001"
   inkscape:export-ydpi="1.4400001"><defs
   id="defs3074" /><sodipodi:namedview
   pagecolor="#ffffff"
   bordercolor="#666666"
   borderopacity="1"
   objecttolerance="10"
   gridtolerance="10"
   guidetolerance="10"
   inkscape:pageopacity="0"
   inkscape:pageshadow="2"
   inkscape:window-width="1376"
   inkscape:window-height="872"
   id="namedview3072"
   showgrid="false"
   inkscape:zoom="0.236"
   inkscape:cx="-6.3559322"
   inkscape:cy="500"
   inkscape:window-x="0"
   inkscape:window-y="0"
   inkscape:window-maximized="0"
   inkscape:current-layer="g3068" />
<metadata
   id="metadata3066"> Svg Vector Icons : http://www.onlinewebfonts.com/icon <rdf:RDF><cc:Work
     rdf:about=""><dc:format>image/svg+xml</dc:format><dc:type
       rdf:resource="http://purl.org/dc/dcmitype/StillImage" /><dc:title></dc:title></cc:Work></rdf:RDF></metadata>
<g
   id="g3068"><path
     inkscape:connector-curvature="0"
     d="m 953.92541,82.649996 -46.7,-46.800004 c -35.5,-35.60000031 -97.9,-35.60000031 -133.4,0 l -88.2,103.800008 -469.7,450.59999 0,11 -0.4,1.9 -59.1,200.7 43.4,38.8 189.6,-67 2.4,0.5 9.3,0 449.3,-471.29999 103.5,-84.7 c 36.8,-36.8 36.8,-100.6 0,-137.500004 z m -714,677.099994 27.6,-88.1 55.1,55.3 -82.7,32.8 z m 138.8,-65.7 -81.2,-81.4 420,-418.69999 78.6,78.8 -417.4,421.29999 z m 530.8,-522.19999 -62.6,62.7 -91.1,-91.4 62.6,-62.700004 c 5.9,-5.900004 13.8,-9.200004 22.2,-9.200004 8.4,0 16.3,3.3 22.2,9.200004 l 46.6,46.800004 c 12.3,12.3 12.3,32.3 0.1,44.6 z"
     id="path3070-1"
     sodipodi:nodetypes="cccccccccccccccccccccccccccccccsccc"
     style="fill:#aaffaa;fill-opacity:1" /><path
     d="m 826.89998,438.3 c -17.6,0 -30.6,14.3 -30.6,31.9 l 0,390.8 c 0,42 -32.5,77.7 -74.4,77.7 L 152,938.7 C 110.1,938.7 61.3,903 61.3,861 l 0,-571.8 c 0,-42.1 48.8,-86.9 90.7,-86.9 l 325.69998,0 c 17.6,0 31.9,-13.1 31.9,-30.7 0,-17.7 -14.2,-30.7 -31.9,-30.7 L 152,140.9 C 68.2,140.9 0,205 0,289.1 L 0,860.9 C 0,945 68.2,1000 152,1000 l 569.89998,0 c 83.8,0 135.7,-55 135.7,-139.1 l 0,-390.6 c -0.1,-17.7 -13.1,-32 -30.7,-32 z"
     id="path3027"
     inkscape:connector-curvature="0"
     sodipodi:nodetypes="cssssssssssssssssccc"
     style="fill:#333333" /></g>
</svg>