<?xml version="1.0" encoding="UTF-8" standalone="no"?>
<!-- Generator: Adobe Illustrator 16.0.0, SVG Export Plug-In . SVG Version: 6.00 Build 0)  -->

<svg
   xmlns:dc="http://purl.org/dc/elements/1.1/"
   xmlns:cc="http://creativecommons.org/ns#"
   xmlns:rdf="http://www.w3.org/1999/02/22-rdf-syntax-ns#"
   xmlns:svg="http://www.w3.org/2000/svg"
   xmlns="http://www.w3.org/2000/svg"
   xmlns:sodipodi="http://sodipodi.sourceforge.net/DTD/sodipodi-0.dtd"
   xmlns:inkscape="http://www.inkscape.org/namespaces/inkscape"
   version="1.1"
   id="Capa_1"
   x="0px"
   y="0px"
   width="32"
   height="32"
   viewBox="0 0 32 32"
   xml:space="preserve"
   inkscape:version="0.48.4 r9939"
   sodipodi:docname="Médico.svg"><metadata
   id="metadata3279"><rdf:RDF><cc:Work
       rdf:about=""><dc:format>image/svg+xml</dc:format><dc:type
         rdf:resource="http://purl.org/dc/dcmitype/StillImage" /><dc:title></dc:title></cc:Work></rdf:RDF></metadata><defs
   id="defs3277">
	
</defs><sodipodi:namedview
   pagecolor="#ffffff"
   bordercolor="#666666"
   borderopacity="1"
   objecttolerance="10"
   gridtolerance="10"
   guidetolerance="10"
   inkscape:pageopacity="0"
   inkscape:pageshadow="2"
   inkscape:window-width="903"
   inkscape:window-height="970"
   id="namedview3275"
   showgrid="false"
   inkscape:zoom="11.141557"
   inkscape:cx="-2.5155507"
   inkscape:cy="9.5581505"
   inkscape:window-x="818"
   inkscape:window-y="258"
   inkscape:window-maximized="0"
   inkscape:current-layer="g3235" />
<g
   id="g3235"
   transform="matrix(-0.05988374,0,0,0.05988374,30.350907,1.6490713)">
		
		
		<path
   inkscape:connector-curvature="0"
   id="path3241"
   d="m 239.64714,251.364 c 49.11,0 88.924,-46.6 88.924,-104.082 0,-79.714 -39.812,-104.082 -88.924,-104.082 -49.113,0 -88.926,24.368 -88.926,104.082 0.001,57.483 39.814,104.082 88.926,104.082 z"
   style="fill:#ffaaaa;fill-opacity:1" />
		<path
   inkscape:connector-curvature="0"
   id="path3243"
   d="m 436.0115,404.561 -44.864,-101.063 c -2.053,-4.625 -5.656,-8.459 -10.146,-10.797 l -69.624,-36.242 c -1.535,-0.799 -3.396,-0.644 -4.777,0.4 -19.689,14.895 -42.844,22.768 -66.955,22.768 -24.112,0 -47.265,-7.873 -66.958,-22.768 -1.383,-1.045 -3.242,-1.201 -4.777,-0.4 l -69.622997,36.242 c -4.489,2.338 -8.091,6.172 -10.144,10.797 l -44.862,101.063 c -3.092,6.966 -2.458,14.938 1.696,21.329 4.154,6.389 11.184,10.204 18.806,10.204 H 415.5095 c 7.622,0 14.652,-3.814 18.806,-10.204 4.153,-6.391 4.787,-14.365 1.696,-21.329 z"
   style="fill:#ffaaaa;fill-opacity:1" />
	</g>
<g
   id="g3245"
   transform="translate(0,-447.293)">
</g>
<g
   id="g3247"
   transform="translate(0,-447.293)">
</g>
<g
   id="g3249"
   transform="translate(0,-447.293)">
</g>
<g
   id="g3251"
   transform="translate(0,-447.293)">
</g>
<g
   id="g3253"
   transform="translate(0,-447.293)">
</g>
<g
   id="g3255"
   transform="translate(0,-447.293)">
</g>
<g
   id="g3257"
   transform="translate(0,-447.293)">
</g>
<g
   id="g3259"
   transform="translate(0,-447.293)">
</g>
<g
   id="g3261"
   transform="translate(0,-447.293)">
</g>
<g
   id="g3263"
   transform="translate(0,-447.293)">
</g>
<g
   id="g3265"
   transform="translate(0,-447.293)">
</g>
<g
   id="g3267"
   transform="translate(0,-447.293)">
</g>
<g
   id="g3269"
   transform="translate(0,-447.293)">
</g>
<g
   id="g3271"
   transform="translate(0,-447.293)">
</g>
<g
   id="g3273"
   transform="translate(0,-447.293)">
</g>
</svg>