<?xml version="1.0" encoding="UTF-8" standalone="no"?>
<!-- Svg Vector Icons : http://www.onlinewebfonts.com/icon -->

<svg
   xmlns:dc="http://purl.org/dc/elements/1.1/"
   xmlns:cc="http://creativecommons.org/ns#"
   xmlns:rdf="http://www.w3.org/1999/02/22-rdf-syntax-ns#"
   xmlns:svg="http://www.w3.org/2000/svg"
   xmlns="http://www.w3.org/2000/svg"
   xmlns:sodipodi="http://sodipodi.sourceforge.net/DTD/sodipodi-0.dtd"
   xmlns:inkscape="http://www.inkscape.org/namespaces/inkscape"
   version="1.1"
   x="0px"
   y="0px"
   viewBox="0 0 1000 1000"
   enable-background="new 0 0 1000 1000"
   xml:space="preserve"
   id="svg2997"
   inkscape:version="0.48.4 r9939"
   width="100%"
   height="100%"
   sodipodi:docname="Gravar.svg"
   inkscape:export-filename="C:\Users\Adelino.UTILSOFT\Desktop\Novos icons\Gravar.png"
   inkscape:export-xdpi="1.4400001"
   inkscape:export-ydpi="1.4400001"><defs
   id="defs3007" /><sodipodi:namedview
   pagecolor="#ffffff"
   bordercolor="#666666"
   borderopacity="1"
   objecttolerance="10"
   gridtolerance="10"
   guidetolerance="10"
   inkscape:pageopacity="0"
   inkscape:pageshadow="2"
   inkscape:window-width="1920"
   inkscape:window-height="1017"
   id="namedview3005"
   showgrid="false"
   inkscape:zoom="0.2075"
   inkscape:cx="-739.78669"
   inkscape:cy="80.314326"
   inkscape:window-x="-8"
   inkscape:window-y="-8"
   inkscape:window-maximized="1"
   inkscape:current-layer="svg2997" />
<metadata
   id="metadata2999"> Svg Vector Icons : http://www.onlinewebfonts.com/icon <rdf:RDF><cc:Work
     rdf:about=""><dc:format>image/svg+xml</dc:format><dc:type
       rdf:resource="http://purl.org/dc/dcmitype/StillImage" /><dc:title></dc:title></cc:Work></rdf:RDF></metadata>
<g
   id="g3001"
   style="fill:#ffffff"><path
     d="M591.9,316.3c16.9,0,30.6-13.7,30.6-30.6V163.1c0-16.9-13.7-30.6-30.6-30.6s-30.6,13.7-30.6,30.6v122.5C561.3,302.6,575,316.3,591.9,316.3L591.9,316.3z M928.8,867.5c0,33.8-27.4,61.3-61.3,61.3h-735c-33.8,0-61.3-27.4-61.3-61.3v-735c0-33.8,27.4-61.3,61.3-61.3h61.3v306.3c0,33.8,27.4,61.3,61.3,61.3h490c33.8,0,61.3-27.4,61.3-61.3V71.3h61.3c33.8,0,61.3,27.4,61.3,61.3V867.5L928.8,867.5z M255,71.3h490v275.6c0,16.9-13.7,30.6-30.6,30.6H285.6c-16.9,0-30.6-13.7-30.6-30.6V71.3L255,71.3z M867.5,10h-735C64.8,10,10,64.8,10,132.5v735C10,935.2,64.8,990,132.5,990h735c67.7,0,122.5-54.8,122.5-122.5v-735C990,64.8,935.2,10,867.5,10L867.5,10z"
     id="path3003"
     style="fill:#ffffff" /></g>
</svg>