<?xml version="1.0" encoding="UTF-8" standalone="no"?>
<!-- Created with Inkscape (http://www.inkscape.org/) -->

<svg
   xmlns:dc="http://purl.org/dc/elements/1.1/"
   xmlns:cc="http://creativecommons.org/ns#"
   xmlns:rdf="http://www.w3.org/1999/02/22-rdf-syntax-ns#"
   xmlns:svg="http://www.w3.org/2000/svg"
   xmlns="http://www.w3.org/2000/svg"
   xmlns:sodipodi="http://sodipodi.sourceforge.net/DTD/sodipodi-0.dtd"
   xmlns:inkscape="http://www.inkscape.org/namespaces/inkscape"
   width="2854.322mm"
   height="459.99988mm"
   viewBox="0 0 10113.739 1629.9208"
   id="svg4725"
   version="1.1"
   inkscape:version="0.92.2 (5c3e80d, 2017-08-06)"
   sodipodi:docname="LOGO_UTILSOFT.svg">
  <defs
     id="defs4727" />
  <sodipodi:namedview
     id="base"
     pagecolor="#ffffff"
     bordercolor="#666666"
     borderopacity="1.0"
     inkscape:pageopacity="0.0"
     inkscape:pageshadow="2"
     inkscape:zoom="0.088388348"
     inkscape:cx="4638.7047"
     inkscape:cy="1080.3229"
     inkscape:document-units="mm"
     inkscape:current-layer="layer3"
     showgrid="false"
     showguides="false"
     inkscape:guide-bbox="true"
     showborder="true"
     inkscape:window-width="1920"
     inkscape:window-height="1027"
     inkscape:window-x="-8"
     inkscape:window-y="-8"
     inkscape:window-maximized="1"
     fit-margin-top="0"
     fit-margin-left="0"
     fit-margin-right="0"
     fit-margin-bottom="0">
    <sodipodi:guide
       position="8.7348553e-011,-4.7244096e-006"
       orientation="0,1"
       id="guide5361"
       inkscape:label=""
       inkscape:color="rgb(0,0,255)"
       inkscape:locked="false" />
    <sodipodi:guide
       position="8.7348553e-011,-4.7244096e-006"
       orientation="1,0"
       id="guide5363"
       inkscape:label=""
       inkscape:color="rgb(0,0,255)"
       inkscape:locked="false" />
    <sodipodi:guide
       position="88.582675,773.27178"
       orientation="1,0"
       id="guide5365"
       inkscape:label=""
       inkscape:color="rgb(0,0,255)"
       inkscape:locked="false" />
    <sodipodi:guide
       position="1334.6469,181.42857"
       orientation="1,0"
       id="guide5367"
       inkscape:label=""
       inkscape:color="rgb(0,0,255)"
       inkscape:locked="false" />
    <sodipodi:guide
       position="1405.513,779.52757"
       orientation="1,0"
       id="guide5369"
       inkscape:label=""
       inkscape:color="rgb(0,0,255)"
       inkscape:locked="false" />
    <sodipodi:guide
       position="1039.3724,696"
       orientation="1,0"
       id="guide5537"
       inkscape:label=""
       inkscape:color="rgb(0,0,255)"
       inkscape:locked="false" />
    <sodipodi:guide
       position="1344.0012,885.82678"
       orientation="0,1"
       id="guide5554"
       inkscape:label=""
       inkscape:color="rgb(0,0,255)"
       inkscape:locked="false" />
    <sodipodi:guide
       position="1629.9212,936"
       orientation="1,0"
       id="guide5558"
       inkscape:label=""
       inkscape:color="rgb(0,0,255)"
       inkscape:locked="false" />
    <sodipodi:guide
       position="1541.3385,175.99999"
       orientation="1,0"
       id="guide5560"
       inkscape:label=""
       inkscape:color="rgb(0,0,255)"
       inkscape:locked="false" />
    <sodipodi:guide
       position="814.96061,814.96064"
       orientation="1,0"
       id="guide5562"
       inkscape:label=""
       inkscape:color="rgb(255,2,0)"
       inkscape:locked="false" />
    <sodipodi:guide
       position="1110.2386,1108"
       orientation="1,0"
       id="guide5571"
       inkscape:label=""
       inkscape:color="rgb(0,0,255)"
       inkscape:locked="false" />
    <sodipodi:guide
       position="814.96061,814.96064"
       orientation="0,1"
       id="guide5573"
       inkscape:label=""
       inkscape:color="rgb(255,4,0)"
       inkscape:locked="false" />
    <sodipodi:guide
       position="1984.2519,1108.7435"
       orientation="1,0"
       id="guide5575"
       inkscape:label=""
       inkscape:color="rgb(0,0,255)"
       inkscape:locked="false" />
    <sodipodi:guide
       position="744.09447,39.597975"
       orientation="1,0"
       id="guide4252"
       inkscape:label=""
       inkscape:color="rgb(0,0,255)"
       inkscape:locked="false" />
    <sodipodi:guide
       position="1725.3404,224.40826"
       orientation="0,1"
       id="guide4259"
       inkscape:label=""
       inkscape:color="rgb(0,0,255)"
       inkscape:locked="false" />
    <sodipodi:guide
       position="2875.9999,1346.4567"
       orientation="0,1"
       id="guide5338"
       inkscape:label=""
       inkscape:color="rgb(0,0,255)"
       inkscape:locked="false" />
    <sodipodi:guide
       position="1311,519.68268"
       orientation="0,1"
       id="guide5340"
       inkscape:label=""
       inkscape:color="rgb(0,0,255)"
       inkscape:locked="false" />
    <sodipodi:guide
       position="1405.513,295.27441"
       orientation="0,1"
       id="guide5342"
       inkscape:label=""
       inkscape:color="rgb(0,0,255)"
       inkscape:locked="false" />
    <sodipodi:guide
       position="1371.08,590.54883"
       orientation="0,1"
       id="guide5344"
       inkscape:label=""
       inkscape:color="rgb(0,0,255)"
       inkscape:locked="false" />
  </sodipodi:namedview>
  <metadata
     id="metadata4730">
    <rdf:RDF>
      <cc:Work
         rdf:about="">
        <dc:format>image/svg+xml</dc:format>
        <dc:type
           rdf:resource="http://purl.org/dc/dcmitype/StillImage" />
        <dc:title></dc:title>
      </cc:Work>
    </rdf:RDF>
  </metadata>
  <g
     inkscape:label="UTILSOFT"
     inkscape:groupmode="layer"
     id="layer1"
     style="display:inline"
     transform="translate(0,577.5586)">
    <g
       id="g6065-2-4-1-6-2"
       transform="matrix(19.968309,0,0,19.968312,-2271.8269,-5553.3094)"
       style="display:inline;opacity:1;fill:#0f204b;fill-opacity:1;stroke:none">
      <path
         sodipodi:nodetypes="sssccsssccs"
         inkscape:connector-curvature="0"
         id="path5847-8-3-4-0-7"
         style="font-style:normal;font-variant:normal;font-weight:500;font-stretch:normal;font-size:336.52883911px;line-height:125%;font-family:YagiUhfNo2;-inkscape-font-specification:'YagiUhfNo2 Medium';letter-spacing:0px;word-spacing:0px;fill:#0f204b;fill-opacity:1;stroke:none;stroke-width:1px;stroke-linecap:butt;stroke-linejoin:miter;stroke-opacity:1"
         d="m 213.14168,305.97077 c 0,13.73958 11.09735,24.83694 24.83694,24.83694 13.73959,0 24.83695,-11.09736 24.83695,-24.83694 v -42.59273 h -13.73959 v 42.59273 c 0,6.12997 -4.96739,11.09736 -11.09736,11.09736 -6.12997,0 -11.09736,-4.96739 -11.09736,-11.09736 v -42.59273 h -13.73958 z" />
      <path
         inkscape:connector-curvature="0"
         id="path5849-3-3-3-2-6"
         style="font-style:normal;font-variant:normal;font-weight:500;font-stretch:normal;font-size:336.52883911px;line-height:125%;font-family:YagiUhfNo2;-inkscape-font-specification:'YagiUhfNo2 Medium';letter-spacing:0px;word-spacing:0px;fill:#0f204b;fill-opacity:1;stroke:none;stroke-width:1px;stroke-linecap:butt;stroke-linejoin:miter;stroke-opacity:1"
         d="m 268.38241,263.37804 v 13.73959 h 17.96715 v 53.69008 h 13.73959 v -53.69008 h 17.96715 v -13.73959 z" />
      <path
         inkscape:connector-curvature="0"
         id="path5851-0-9-3-0-6"
         style="font-style:normal;font-variant:normal;font-weight:500;font-stretch:normal;font-size:336.52883911px;line-height:125%;font-family:YagiUhfNo2;-inkscape-font-specification:'YagiUhfNo2 Medium';letter-spacing:0px;word-spacing:0px;fill:#0f204b;fill-opacity:1;stroke:none;stroke-width:1px;stroke-linecap:butt;stroke-linejoin:miter;stroke-opacity:1"
         d="m 337.85155,263.37804 h -13.73959 v 67.42967 h 13.73959 z" />
      <path
         inkscape:connector-curvature="0"
         id="path5853-0-8-4-0-4"
         style="font-style:normal;font-variant:normal;font-weight:500;font-stretch:normal;font-size:336.52883911px;line-height:125%;font-family:YagiUhfNo2;-inkscape-font-specification:'YagiUhfNo2 Medium';letter-spacing:0px;word-spacing:0px;fill:#0f204b;fill-opacity:1;stroke:none;stroke-width:1px;stroke-linecap:butt;stroke-linejoin:miter;stroke-opacity:1"
         d="m 358.28753,263.37804 h -13.73959 v 44.60081 c 0,12.57701 10.25184,22.82886 22.82885,22.82886 h 18.70698 v -13.73959 h -18.70698 c -4.96739,0 -9.08926,-4.12188 -9.08926,-9.08927 z" />
      <path
         inkscape:connector-curvature="0"
         id="path5855-8-1-7-6-4"
         style="font-style:normal;font-variant:normal;font-weight:500;font-stretch:normal;font-size:336.52883911px;line-height:125%;font-family:YagiUhfNo2;-inkscape-font-specification:'YagiUhfNo2 Medium';letter-spacing:0px;word-spacing:0px;fill:#0f204b;fill-opacity:1;stroke:none;stroke-width:1px;stroke-linecap:butt;stroke-linejoin:miter;stroke-opacity:1"
         d="m 422.34835,330.80771 c 11.20305,0 20.29231,-9.08927 20.29231,-20.29232 0,-11.20305 -9.08926,-20.29231 -20.29231,-20.29231 h -9.7234 c -3.59343,0 -6.55273,-2.9593 -6.55273,-6.55273 0,-3.59343 2.9593,-6.55272 6.55273,-6.55272 h 28.64175 v -13.73959 h -28.64175 c -11.20305,0 -20.29231,9.08927 -20.29231,20.29231 0,11.20305 9.08926,20.29232 20.29231,20.29232 h 9.7234 c 3.59343,0 6.55273,2.95929 6.55273,6.55272 0,3.59343 -2.9593,6.55273 -6.55273,6.55273 h -27.79624 v 13.73959 z" />
      <path
         transform="translate(120.26117,246.0124)"
         id="path5857-3-9-8-2-1"
         d="m 361.0918,17.388672 c -18.63338,0 -33.70313,15.069745 -33.70313,33.703125 0,18.63338 15.06975,33.703125 33.70313,33.703125 18.63337,0 33.70312,-15.069745 33.70312,-33.703125 0,-18.63338 -15.06975,-33.703125 -33.70312,-33.703125 z m 0,13.751953 c 1.37879,0 2.72387,0.140781 4.02343,0.40625 1.29957,0.265469 2.55237,0.655824 3.7461,1.160156 1.19373,0.504333 2.32934,1.121301 3.39062,1.837891 1.06129,0.71659 2.04893,1.533305 2.95117,2.435547 0.90225,0.902241 1.71896,1.889884 2.43555,2.951172 0.71659,1.061287 1.33356,2.196897 1.83789,3.390625 0.50433,1.193728 0.89469,2.446531 1.16016,3.746093 0.26547,1.299563 0.40625,2.644647 0.40625,4.023438 0,1.378791 -0.14078,2.725828 -0.40625,4.025391 -0.26547,1.299562 -0.65583,2.552365 -1.16016,3.746093 -0.50433,1.193728 -1.1213,2.327385 -1.83789,3.388672 -0.71659,1.061288 -1.5333,2.050884 -2.43555,2.953125 -0.90224,0.902242 -1.88988,1.717004 -2.95117,2.433594 -1.06128,0.71659 -2.19689,1.333558 -3.39062,1.83789 -1.19373,0.504333 -2.44653,0.896641 -3.7461,1.16211 -1.29956,0.265469 -2.64464,0.404297 -4.02343,0.404297 -1.37879,0 -2.72583,-0.138828 -4.02539,-0.404297 -1.29957,-0.265469 -2.55237,-0.657777 -3.7461,-1.16211 -1.19373,-0.504332 -2.32738,-1.1213 -3.38867,-1.83789 -1.06129,-0.71659 -2.05088,-1.531352 -2.95312,-2.433594 -0.90225,-0.902241 -1.71701,-1.891837 -2.4336,-2.953125 -0.71659,-1.061287 -1.33356,-2.194944 -1.83789,-3.388672 -0.50433,-1.193728 -0.89664,-2.446531 -1.16211,-3.746093 -0.26547,-1.299563 -0.4043,-2.6466 -0.4043,-4.025391 0,-1.378791 0.13883,-2.723875 0.4043,-4.023438 0.26547,-1.299562 0.65778,-2.552365 1.16211,-3.746093 0.50433,-1.193728 1.1213,-2.329338 1.83789,-3.390625 0.71659,-1.061288 1.53135,-2.048931 2.4336,-2.951172 0.90224,-0.902242 1.89183,-1.718957 2.95312,-2.435547 1.06129,-0.71659 2.19494,-1.333558 3.38867,-1.837891 1.19373,-0.504332 2.44653,-0.894687 3.7461,-1.160156 1.29956,-0.265469 2.6466,-0.40625 4.02539,-0.40625 z"
         style="font-style:normal;font-variant:normal;font-weight:500;font-stretch:normal;font-size:336.52883911px;line-height:125%;font-family:YagiUhfNo2;-inkscape-font-specification:'YagiUhfNo2 Medium';letter-spacing:0px;word-spacing:0px;fill:#0f204b;fill-opacity:1;stroke:none;stroke-width:1px;stroke-linecap:butt;stroke-linejoin:miter;stroke-opacity:1"
         inkscape:connector-curvature="0" />
      <path
         inkscape:connector-curvature="0"
         id="path5859-5-4-4-4-9"
         style="font-style:normal;font-variant:normal;font-weight:500;font-stretch:normal;font-size:336.52883911px;line-height:125%;font-family:YagiUhfNo2;-inkscape-font-specification:'YagiUhfNo2 Medium';letter-spacing:0px;word-spacing:0px;fill:#0f204b;fill-opacity:1;stroke:none;stroke-width:1px;stroke-linecap:butt;stroke-linejoin:miter;stroke-opacity:1"
         d="m 536.34566,330.80771 v -26.84504 h 23.78002 v -13.73959 h -23.78002 v -4.01619 c 0,-4.96739 4.12187,-9.08926 9.08924,-9.08926 h 18.70697 V 263.37804 H 545.4349 c -12.577,0 -22.82884,10.25184 -22.82884,22.82885 v 44.60082 z" />
      <path
         inkscape:connector-curvature="0"
         id="path5861-7-1-4-2-5"
         style="font-style:normal;font-variant:normal;font-weight:500;font-stretch:normal;font-size:336.52883911px;line-height:125%;font-family:YagiUhfNo2;-inkscape-font-specification:'YagiUhfNo2 Medium';letter-spacing:0px;word-spacing:0px;fill:#0f204b;fill-opacity:1;stroke:none;stroke-width:1px;stroke-linecap:butt;stroke-linejoin:miter;stroke-opacity:1"
         d="m 570.58726,263.37804 v 13.73959 h 17.96718 v 53.69008 h 13.73957 v -53.69008 h 17.96715 v -13.73959 z" />
    </g>
  </g>
  <g
     inkscape:groupmode="layer"
     id="layer3"
     inkscape:label="Logo"
     style="display:inline"
     transform="translate(0,577.5586)">
    <g
       inkscape:groupmode="layer"
       id="layer5"
       inkscape:label="Circulo"
       style="display:inline">
      <path
         style="color:#000000;clip-rule:nonzero;display:inline;overflow:visible;visibility:visible;opacity:1;isolation:auto;mix-blend-mode:normal;color-interpolation:sRGB;color-interpolation-filters:linearRGB;solid-color:#000000;solid-opacity:1;fill:#0f204b;fill-opacity:1;fill-rule:nonzero;stroke:none;stroke-width:11.89700031;stroke-linecap:butt;stroke-linejoin:miter;stroke-miterlimit:4;stroke-dasharray:none;stroke-dashoffset:0;stroke-opacity:1;color-rendering:auto;image-rendering:auto;shape-rendering:auto;text-rendering:auto;enable-background:accumulate"
         d="M 816.50654,-577.5586 C 599.95552,-577.5587 392.27466,-491.6962 239.15,-338.8613 86.025244,-186.0265 -1.0018948e-4,21.261215 0,237.4023 4.007588e-4,453.5431 86.025344,660.8316 239.15,813.666 c 153.12466,152.8344 360.80586,238.6954 577.35654,238.6953 155.71523,10e-5 306.84386,-44.3975 436.40036,-126.166 l -59.1002,-88.4824 C 1081.634,907.9441 951.04134,946.0626 816.50654,946.0625 628.20167,946.0626 447.6084,871.4015 314.45655,738.5019 181.3048,605.6023 106.5008,425.351 106.5004,237.4023 c 0,-187.948885 74.8043,-368.1996 207.95615,-501.0996 133.15185,-132.9 313.74483,-207.5626 502.04999,-207.5625 188.30516,-1e-4 368.89806,74.6626 502.04996,207.5625 116.3103,116.0903 188.0936,268.3112047 204.3928,430.2325 h 106.972 c -16.6243,-190.169385 -99.759,-369.3554 -236.0582,-505.3965 -153.1246,-152.8349 -360.8056,-238.6974 -577.35656,-238.6973 z"
         id="path5371-3-5"
         inkscape:connector-curvature="0" />
    </g>
    <g
       inkscape:groupmode="layer"
       id="layer2"
       inkscape:label="Quadrados"
       style="display:inline">
      <path
         inkscape:connector-curvature="0"
         style="color:#000000;clip-rule:nonzero;display:inline;overflow:visible;visibility:visible;opacity:1;isolation:auto;mix-blend-mode:normal;color-interpolation:sRGB;color-interpolation-filters:linearRGB;solid-color:#000000;solid-opacity:1;fill:#5eff08;fill-opacity:1;fill-rule:nonzero;stroke:none;stroke-width:1.39699996;stroke-linecap:butt;stroke-linejoin:miter;stroke-miterlimit:4;stroke-dasharray:none;stroke-dashoffset:0;stroke-opacity:1;color-rendering:auto;image-rendering:auto;shape-rendering:auto;text-rendering:auto;enable-background:accumulate"
         d="m 1405.5129,827.954 h 224.4083 v 224.4082 h -224.4083 z"
         id="rect5747-0-4-8" />
      <path
         inkscape:connector-curvature="0"
         style="color:#000000;clip-rule:nonzero;display:inline;overflow:visible;visibility:visible;opacity:1;isolation:auto;mix-blend-mode:normal;color-interpolation:sRGB;color-interpolation-filters:linearRGB;solid-color:#000000;solid-opacity:1;fill:#0f204b;fill-opacity:1;fill-rule:nonzero;stroke:none;stroke-width:1.39699996;stroke-linecap:butt;stroke-linejoin:miter;stroke-miterlimit:4;stroke-dasharray:none;stroke-dashoffset:0;stroke-opacity:1;color-rendering:auto;image-rendering:auto;shape-rendering:auto;text-rendering:auto;enable-background:accumulate"
         d="m 1405.5129,237.4051 h 224.4083 v 224.4083 h -224.4083 z"
         id="rect5745-4-5-8-0" />
      <path
         inkscape:connector-curvature="0"
         style="color:#000000;clip-rule:nonzero;display:inline;overflow:visible;visibility:visible;opacity:1;isolation:auto;mix-blend-mode:normal;color-interpolation:sRGB;color-interpolation-filters:linearRGB;solid-color:#000000;solid-opacity:1;fill:#0f204b;fill-opacity:1;fill-rule:nonzero;stroke:none;stroke-width:1.39699996;stroke-linecap:butt;stroke-linejoin:miter;stroke-miterlimit:4;stroke-dasharray:none;stroke-dashoffset:0;stroke-opacity:1;color-rendering:auto;image-rendering:auto;shape-rendering:auto;text-rendering:auto;enable-background:accumulate"
         d="m 1405.5129,532.6795 h 224.4083 v 224.4083 h -224.4083 z"
         id="rect5745-4-5-1-4-2" />
      <path
         inkscape:connector-curvature="0"
         style="color:#000000;clip-rule:nonzero;display:inline;overflow:visible;visibility:visible;opacity:1;isolation:auto;mix-blend-mode:normal;color-interpolation:sRGB;color-interpolation-filters:linearRGB;solid-color:#000000;solid-opacity:1;fill:#0f204b;fill-opacity:1;fill-rule:nonzero;stroke:none;stroke-width:1.39699996;stroke-linecap:butt;stroke-linejoin:miter;stroke-miterlimit:4;stroke-dasharray:none;stroke-dashoffset:0;stroke-opacity:1;color-rendering:auto;image-rendering:auto;shape-rendering:auto;text-rendering:auto;enable-background:accumulate"
         d="M 814.96062,237.4051 H 1039.3689 V 461.8134 H 814.96062 Z"
         id="rect5745-4-5-6-2-4-5" />
      <path
         inkscape:connector-curvature="0"
         style="color:#000000;clip-rule:nonzero;display:inline;overflow:visible;visibility:visible;opacity:1;isolation:auto;mix-blend-mode:normal;color-interpolation:sRGB;color-interpolation-filters:linearRGB;solid-color:#000000;solid-opacity:1;fill:#0f204b;fill-opacity:1;fill-rule:nonzero;stroke:none;stroke-width:1.39699996;stroke-linecap:butt;stroke-linejoin:miter;stroke-miterlimit:4;stroke-dasharray:none;stroke-dashoffset:0;stroke-opacity:1;color-rendering:auto;image-rendering:auto;shape-rendering:auto;text-rendering:auto;enable-background:accumulate"
         d="m 1110.2385,532.6795 h 224.4083 v 224.4083 h -224.4083 z"
         id="rect5745-4-5-1-8-3-4" />
      <path
         inkscape:connector-curvature="0"
         style="color:#000000;clip-rule:nonzero;display:inline;overflow:visible;visibility:visible;opacity:1;isolation:auto;mix-blend-mode:normal;color-interpolation:sRGB;color-interpolation-filters:linearRGB;solid-color:#000000;solid-opacity:1;fill:#5eff08;fill-opacity:1;fill-rule:nonzero;stroke:none;stroke-width:1.39699996;stroke-linecap:butt;stroke-linejoin:miter;stroke-miterlimit:4;stroke-dasharray:none;stroke-dashoffset:0;stroke-opacity:1;color-rendering:auto;image-rendering:auto;shape-rendering:auto;text-rendering:auto;enable-background:accumulate"
         d="m 1110.2385,237.4051 h 224.4083 v 224.4083 h -224.4083 z"
         id="rect5747-0-0-2-4" />
    </g>
  </g>
</svg>
