<?xml version="1.0" encoding="UTF-8" standalone="no"?>
<!-- Svg Vector Icons : http://www.onlinewebfonts.com/icon -->

<svg
   xmlns:dc="http://purl.org/dc/elements/1.1/"
   xmlns:cc="http://creativecommons.org/ns#"
   xmlns:rdf="http://www.w3.org/1999/02/22-rdf-syntax-ns#"
   xmlns:svg="http://www.w3.org/2000/svg"
   xmlns="http://www.w3.org/2000/svg"
   xmlns:sodipodi="http://sodipodi.sourceforge.net/DTD/sodipodi-0.dtd"
   xmlns:inkscape="http://www.inkscape.org/namespaces/inkscape"
   version="1.1"
   x="0px"
   y="0px"
   viewBox="0 0 1000 1000"
   enable-background="new 0 0 1000 1000"
   xml:space="preserve"
   id="svg3021"
   inkscape:version="0.48.4 r9939"
   width="100%"
   height="100%"
   sodipodi:docname="Novo.svg"
   inkscape:export-filename="C:\Users\Adelino.UTILSOFT\Desktop\Novos icons\Novo.png"
   inkscape:export-xdpi="1.4400001"
   inkscape:export-ydpi="1.4400001"><defs
   id="defs3031" /><sodipodi:namedview
   pagecolor="#ffffff"
   bordercolor="#666666"
   borderopacity="1"
   objecttolerance="10"
   gridtolerance="10"
   guidetolerance="10"
   inkscape:pageopacity="0"
   inkscape:pageshadow="2"
   inkscape:window-width="1920"
   inkscape:window-height="1017"
   id="namedview3029"
   showgrid="false"
   inkscape:zoom="0.6675088"
   inkscape:cx="327.16475"
   inkscape:cy="500"
   inkscape:window-x="-8"
   inkscape:window-y="-8"
   inkscape:window-maximized="1"
   inkscape:current-layer="g3025" />
<metadata
   id="metadata3023"> Svg Vector Icons : http://www.onlinewebfonts.com/icon <rdf:RDF><cc:Work
     rdf:about=""><dc:format>image/svg+xml</dc:format><dc:type
       rdf:resource="http://purl.org/dc/dcmitype/StillImage" /><dc:title></dc:title></cc:Work></rdf:RDF></metadata>
<g
   id="g3025"><path
     d="m 836.9,429.1 c -17.6,0 -30.6,14.3 -30.6,31.9 l 0,390.8 c 0,42 -32.5,77.7 -74.4,77.7 l -569.9,0 c -41.9,0 -90.7,-35.7 -90.7,-77.7 l 0,-571.8 c 0,-42.1 48.8,-86.9 90.7,-86.9 l 325.7,0 c 17.6,0 31.9,-13.1 31.9,-30.7 0,-17.7 -14.2,-30.7 -31.9,-30.7 l -325.7,0 c -83.8,0 -152,64.1 -152,148.2 l 0,571.8 c 0,84.1 68.2,139.1 152,139.1 l 569.9,0 c 83.8,0 135.7,-55 135.7,-139.1 l 0,-390.6 c -0.1,-17.7 -13.1,-32 -30.7,-32 z"
     id="path3027"
     inkscape:connector-curvature="0"
     sodipodi:nodetypes="cssssssssssssssssccc"
     style="fill:#ffffff" /><flowRoot
     xml:space="preserve"
     id="flowRoot3033"
     style="fill:black;stroke:none;stroke-opacity:1;stroke-width:1px;stroke-linejoin:miter;stroke-linecap:butt;fill-opacity:1;font-family:Sans;font-style:normal;font-weight:normal;font-size:40px;line-height:125%;letter-spacing:0px;word-spacing:0px"><flowRegion
       id="flowRegion3035"><rect
         id="rect3037"
         width="792.37286"
         height="546.61017"
         x="665.25421"
         y="-59.322033" /></flowRegion><flowPara
       id="flowPara3039"></flowPara></flowRoot><g
     style="font-size:40px;font-style:normal;font-weight:normal;line-height:125%;letter-spacing:0px;word-spacing:0px;fill:#aaffaa;fill-opacity:1;stroke:none;font-family:Sans"
     id="text3045"
     transform="matrix(5.0494659,0,0,5.0494659,3782.274,-1438.2828)"><path
       d="m -605.19458,382.9248 -18.14063,0 0,-26.78906 -26.92968,0 0,-18.42187 26.92968,0 0,-26.92969 18.14063,0 0,26.92969 27.07031,0 0,18.42187 -27.07031,0 z"
       style="font-size:144px;font-family:Arial Rounded MT Bold;-inkscape-font-specification:Arial Rounded MT Bold;fill:#aaffaa"
       id="path3050"
       inkscape:connector-curvature="0" /></g></g>
</svg>