<?xml version="1.0" encoding="UTF-8" standalone="no"?>
<!-- Created with Inkscape (http://www.inkscape.org/) -->

<svg
   xmlns:dc="http://purl.org/dc/elements/1.1/"
   xmlns:cc="http://creativecommons.org/ns#"
   xmlns:rdf="http://www.w3.org/1999/02/22-rdf-syntax-ns#"
   xmlns:svg="http://www.w3.org/2000/svg"
   xmlns="http://www.w3.org/2000/svg"
   xmlns:sodipodi="http://sodipodi.sourceforge.net/DTD/sodipodi-0.dtd"
   xmlns:inkscape="http://www.inkscape.org/namespaces/inkscape"
   width="300"
   height="50"
   id="svg4279"
   version="1.1"
   inkscape:version="0.48.4 r9939"
   sodipodi:docname="New document 8">
  <defs
     id="defs3" />
  <sodipodi:namedview
     id="base"
     pagecolor="#ffffff"
     bordercolor="#666666"
     borderopacity="1.0"
     inkscape:pageopacity="0.0"
     inkscape:pageshadow="2"
     inkscape:zoom="1.2"
     inkscape:cx="60.416667"
     inkscape:cy="90"
     inkscape:document-units="mm"
     inkscape:current-layer="layer1"
     showgrid="false"
     units="px"
     inkscape:window-width="1280"
     inkscape:window-height="961"
     inkscape:window-x="-8"
     inkscape:window-y="-8"
     inkscape:window-maximized="1" />
  <metadata
     id="metadata4283">
    <rdf:RDF>
      <cc:Work
         rdf:about="">
        <dc:format>image/svg+xml</dc:format>
        <dc:type
           rdf:resource="http://purl.org/dc/dcmitype/StillImage" />
        <dc:title></dc:title>
      </cc:Work>
    </rdf:RDF>
  </metadata>
  <g
     inkscape:label="Layer 1"
     inkscape:groupmode="layer"
     id="layer1"
     transform="translate(0,-127.16536)">
    <g
       transform="matrix(0.44678213,0,0,0.44678213,-85.556723,-169.19563)"
       id="g3121"
       inkscape:export-xdpi="14.25"
       inkscape:export-ydpi="14.25">
      <g
         inkscape:export-filename="C:\Users\adelino\Desktop\rect4163.png"
         inkscape:export-ydpi="14.188354"
         inkscape:export-xdpi="14.188354"
         id="g3860">
        <rect
           y="713.32971"
           x="241.50107"
           height="15"
           width="15"
           id="rect5737-5"
           style="color:#000000;fill:#00112b;fill-opacity:1;fill-rule:nonzero;stroke:none;visibility:visible;display:inline;overflow:visible;enable-background:accumulate" />
        <rect
           y="713.32971"
           x="261.50107"
           height="15"
           width="15"
           id="rect5739-0"
           style="color:#000000;fill:#55d400;fill-opacity:1;fill-rule:nonzero;stroke:none;visibility:visible;display:inline;overflow:visible;enable-background:accumulate" />
        <rect
           y="713.32971"
           x="281.50107"
           height="15"
           width="15"
           id="rect5741-5"
           style="color:#000000;fill:#00112b;fill-opacity:1;fill-rule:nonzero;stroke:none;visibility:visible;display:inline;overflow:visible;enable-background:accumulate" />
        <rect
           y="733.32971"
           x="261.50107"
           height="15"
           width="15"
           id="rect5743-5"
           style="color:#000000;fill:#00112b;fill-opacity:1;fill-rule:nonzero;stroke:none;visibility:visible;display:inline;overflow:visible;enable-background:accumulate" />
        <rect
           y="733.32971"
           x="281.50107"
           height="15"
           width="15"
           id="rect5745-4"
           style="color:#000000;fill:#00112b;fill-opacity:1;fill-rule:nonzero;stroke:none;visibility:visible;display:inline;overflow:visible;enable-background:accumulate" />
        <rect
           y="753.32971"
           x="281.50107"
           height="15"
           width="15"
           id="rect5747-0"
           style="color:#000000;fill:#55d400;fill-opacity:1;fill-rule:nonzero;stroke:none;visibility:visible;display:inline;overflow:visible;enable-background:accumulate" />
        <g
           style="fill:#00112b;fill-opacity:1;display:inline"
           transform="matrix(1.3512926,0,0,1.3512926,24.809299,321.36952)"
           id="g6065-2-4-1">
          <path
             d="m 213.14168,305.97077 c 0,13.73958 11.09735,24.83694 24.83694,24.83694 13.73959,0 24.83695,-11.09736 24.83695,-24.83694 l 0,-42.56906 -13.73959,0 0,42.56906 c 0,6.12997 -4.96739,11.09736 -11.09736,11.09736 -6.12997,0 -11.09736,-4.96739 -11.09736,-11.09736 l 0,-42.56906 -13.73958,0 z"
             style="font-size:336.52883911px;font-style:normal;font-variant:normal;font-weight:500;font-stretch:normal;line-height:125%;letter-spacing:0px;word-spacing:0px;fill:#00112b;fill-opacity:1;stroke:none;font-family:YagiUhfNo2;-inkscape-font-specification:YagiUhfNo2 Medium"
             id="path5847-8-3-4"
             inkscape:connector-curvature="0"
             sodipodi:nodetypes="sssccsssccs" />
          <path
             d="m 268.38241,263.37804 0,13.73959 17.96715,0 0,53.69008 13.73959,0 0,-53.69008 17.96715,0 0,-13.73959 -49.67389,0 z"
             style="font-size:336.52883911px;font-style:normal;font-variant:normal;font-weight:500;font-stretch:normal;line-height:125%;letter-spacing:0px;word-spacing:0px;fill:#00112b;fill-opacity:1;stroke:none;font-family:YagiUhfNo2;-inkscape-font-specification:YagiUhfNo2 Medium"
             id="path5849-3-3-3"
             inkscape:connector-curvature="0" />
          <path
             d="m 337.85155,263.37804 -13.73959,0 0,67.42967 13.73959,0 0,-67.42967 z"
             style="font-size:336.52883911px;font-style:normal;font-variant:normal;font-weight:500;font-stretch:normal;line-height:125%;letter-spacing:0px;word-spacing:0px;fill:#00112b;fill-opacity:1;stroke:none;font-family:YagiUhfNo2;-inkscape-font-specification:YagiUhfNo2 Medium"
             id="path5851-0-9-3"
             inkscape:connector-curvature="0" />
          <path
             d="m 358.28753,263.37804 -13.73959,0 0,44.60081 c 0,12.57701 10.25184,22.82886 22.82885,22.82886 l 18.70698,0 0,-13.73959 -18.70698,0 c -4.96739,0 -9.08926,-4.12188 -9.08926,-9.08927 l 0,-44.60081 z"
             style="font-size:336.52883911px;font-style:normal;font-variant:normal;font-weight:500;font-stretch:normal;line-height:125%;letter-spacing:0px;word-spacing:0px;fill:#00112b;fill-opacity:1;stroke:none;font-family:YagiUhfNo2;-inkscape-font-specification:YagiUhfNo2 Medium"
             id="path5853-0-8-4"
             inkscape:connector-curvature="0" />
          <path
             d="m 422.34835,330.80771 c 11.20305,0 20.29231,-9.08927 20.29231,-20.29232 0,-11.20305 -9.08926,-20.29231 -20.29231,-20.29231 l -9.7234,0 c -3.59343,0 -6.55273,-2.9593 -6.55273,-6.55273 0,-3.59343 2.9593,-6.55272 6.55273,-6.55272 l 28.64175,0 0,-13.73959 -28.64175,0 c -11.20305,0 -20.29231,9.08927 -20.29231,20.29231 0,11.20305 9.08926,20.29232 20.29231,20.29232 l 9.7234,0 c 3.59343,0 6.55273,2.95929 6.55273,6.55272 0,3.59343 -2.9593,6.55273 -6.55273,6.55273 l -27.79624,0 0,13.73959 27.79624,0 z"
             style="font-size:336.52883911px;font-style:normal;font-variant:normal;font-weight:500;font-stretch:normal;line-height:125%;letter-spacing:0px;word-spacing:0px;fill:#00112b;fill-opacity:1;stroke:none;font-family:YagiUhfNo2;-inkscape-font-specification:YagiUhfNo2 Medium"
             id="path5855-8-1-7"
             inkscape:connector-curvature="0" />
          <path
             inkscape:connector-curvature="0"
             style="font-size:336.52883911px;font-style:normal;font-variant:normal;font-weight:500;font-stretch:normal;line-height:125%;letter-spacing:0px;word-spacing:0px;fill:#00112b;fill-opacity:1;stroke:none;font-family:YagiUhfNo2;-inkscape-font-specification:YagiUhfNo2 Medium"
             d="m 361.0918,17.388672 c -18.63338,0 -33.70313,15.069745 -33.70313,33.703125 0,18.63338 15.06975,33.703125 33.70313,33.703125 18.63337,0 33.70312,-15.069745 33.70312,-33.703125 0,-18.63338 -15.06975,-33.703125 -33.70312,-33.703125 z m 0,13.751953 c 1.37879,0 2.72387,0.140781 4.02343,0.40625 1.29957,0.265469 2.55237,0.655824 3.7461,1.160156 1.19373,0.504333 2.32934,1.121301 3.39062,1.837891 1.06129,0.71659 2.04893,1.533305 2.95117,2.435547 0.90225,0.902241 1.71896,1.889884 2.43555,2.951172 0.71659,1.061287 1.33356,2.196897 1.83789,3.390625 0.50433,1.193728 0.89469,2.446531 1.16016,3.746093 0.26547,1.299563 0.40625,2.644647 0.40625,4.023438 0,1.378791 -0.14078,2.725828 -0.40625,4.025391 -0.26547,1.299562 -0.65583,2.552365 -1.16016,3.746093 -0.50433,1.193728 -1.1213,2.327385 -1.83789,3.388672 -0.71659,1.061288 -1.5333,2.050884 -2.43555,2.953125 -0.90224,0.902242 -1.88988,1.717004 -2.95117,2.433594 -1.06128,0.71659 -2.19689,1.333558 -3.39062,1.83789 -1.19373,0.504333 -2.44653,0.896641 -3.7461,1.16211 -1.29956,0.265469 -2.64464,0.404297 -4.02343,0.404297 -1.37879,0 -2.72583,-0.138828 -4.02539,-0.404297 -1.29957,-0.265469 -2.55237,-0.657777 -3.7461,-1.16211 -1.19373,-0.504332 -2.32738,-1.1213 -3.38867,-1.83789 -1.06129,-0.71659 -2.05088,-1.531352 -2.95312,-2.433594 -0.90225,-0.902241 -1.71701,-1.891837 -2.4336,-2.953125 -0.71659,-1.061287 -1.33356,-2.194944 -1.83789,-3.388672 -0.50433,-1.193728 -0.89664,-2.446531 -1.16211,-3.746093 -0.26547,-1.299563 -0.4043,-2.6466 -0.4043,-4.025391 0,-1.378791 0.13883,-2.723875 0.4043,-4.023438 0.26547,-1.299562 0.65778,-2.552365 1.16211,-3.746093 0.50433,-1.193728 1.1213,-2.329338 1.83789,-3.390625 0.71659,-1.061288 1.53135,-2.048931 2.4336,-2.951172 0.90224,-0.902242 1.89183,-1.718957 2.95312,-2.435547 1.06129,-0.71659 2.19494,-1.333558 3.38867,-1.837891 1.19373,-0.504332 2.44653,-0.894687 3.7461,-1.160156 1.29956,-0.265469 2.6466,-0.40625 4.02539,-0.40625 z"
             id="path5857-3-9-8"
             transform="translate(120.26117,246.0124)" />
          <path
             d="m 536.34566,330.80771 0,-26.84504 23.78002,0 0,-13.73959 -23.78002,0 0,-4.01619 c 0,-4.96739 4.12187,-9.08926 9.08924,-9.08926 l 18.70697,0 0,-13.73959 -18.70697,0 c -12.577,0 -22.82884,10.25184 -22.82884,22.82885 l 0,44.60082 13.7396,0 z"
             style="font-size:336.52883911px;font-style:normal;font-variant:normal;font-weight:500;font-stretch:normal;line-height:125%;letter-spacing:0px;word-spacing:0px;fill:#00112b;fill-opacity:1;stroke:none;font-family:YagiUhfNo2;-inkscape-font-specification:YagiUhfNo2 Medium"
             id="path5859-5-4-4"
             inkscape:connector-curvature="0" />
          <path
             d="m 570.58726,263.37804 0,13.73959 17.96718,0 0,53.69008 13.73957,0 0,-53.69008 17.96715,0 0,-13.73959 -49.6739,0 z"
             style="font-size:336.52883911px;font-style:normal;font-variant:normal;font-weight:500;font-stretch:normal;line-height:125%;letter-spacing:0px;word-spacing:0px;fill:#00112b;fill-opacity:1;stroke:none;font-family:YagiUhfNo2;-inkscape-font-specification:YagiUhfNo2 Medium"
             id="path5861-7-1-4"
             inkscape:connector-curvature="0" />
        </g>
        <path
           sodipodi:nodetypes="csssccssscc"
           id="path5751-0-4"
           d="m 296.2014,710.23444 c -2.7902,-26.36732 -25.099,-46.91116 -52.206,-46.91116 -28.995,0 -52.5,23.50505 -52.5,52.5 0,28.99495 23.505,52.5 52.5,52.5 12.6085,0 24.1789,-4.44472 33.2298,-11.85279 l -3.0014,-4.00552 c -8.2128,6.78312 -18.7447,10.85831 -30.2284,10.85831 -26.2336,0 -47.5,-21.26647 -47.5,-47.5 0,-26.23353 21.2664,-47.5 47.5,-47.5 24.3418,0 44.4072,18.3101 47.1743,41.90868 z"
           style="color:#000000;fill:#00112b;fill-opacity:1;fill-rule:nonzero;stroke:none;visibility:visible;display:inline;overflow:visible;enable-background:accumulate"
           inkscape:connector-curvature="0" />
      </g>
    </g>
  </g>
</svg>
