<?xml version="1.0" encoding="UTF-8" standalone="no"?>
<!-- Created with Inkscape (http://www.inkscape.org/) -->

<svg
   xmlns:dc="http://purl.org/dc/elements/1.1/"
   xmlns:cc="http://creativecommons.org/ns#"
   xmlns:rdf="http://www.w3.org/1999/02/22-rdf-syntax-ns#"
   xmlns:svg="http://www.w3.org/2000/svg"
   xmlns="http://www.w3.org/2000/svg"
   xmlns:sodipodi="http://sodipodi.sourceforge.net/DTD/sodipodi-0.dtd"
   xmlns:inkscape="http://www.inkscape.org/namespaces/inkscape"
   width="160"
   height="100"
   id="svg4307"
   version="1.1"
   inkscape:version="0.48.4 r9939"
   inkscape:export-filename="C:\Users\Adelino.UTILSOFT\Desktop\Top.png"
   inkscape:export-xdpi="90"
   inkscape:export-ydpi="90"
   sodipodi:docname="New document 5">
  <defs
     id="defs4309" />
  <sodipodi:namedview
     id="base"
     pagecolor="#464646"
     bordercolor="#666666"
     borderopacity="1.0"
     inkscape:pageopacity="1"
     inkscape:pageshadow="2"
     inkscape:zoom="1.4"
     inkscape:cx="168.51352"
     inkscape:cy="137.85714"
     inkscape:document-units="px"
     inkscape:current-layer="layer1"
     showgrid="false"
     inkscape:window-width="1280"
     inkscape:window-height="961"
     inkscape:window-x="-8"
     inkscape:window-y="-8"
     inkscape:window-maximized="1" />
  <metadata
     id="metadata4312">
    <rdf:RDF>
      <cc:Work
         rdf:about="">
        <dc:format>image/svg+xml</dc:format>
        <dc:type
           rdf:resource="http://purl.org/dc/dcmitype/StillImage" />
        <dc:title></dc:title>
      </cc:Work>
    </rdf:RDF>
  </metadata>
  <g
     inkscape:label="Layer 1"
     inkscape:groupmode="layer"
     id="layer1"
     transform="translate(0,-952.36215)">
    <g
       transform="matrix(0.45778194,0,0,-0.45778194,-56.709192,1231.6255)"
       id="g3226-2-1-4"
       style="fill:#ffffff;fill-opacity:1;stroke:none"
       inkscape:export-filename="C:\Users\gilberto.UTILSOFT\Documents\Design\2012\UTILsst\Lettering_UTILsst_white.png"
       inkscape:export-xdpi="288.33591"
       inkscape:export-ydpi="288.33591">
      <path
         inkscape:connector-curvature="0"
         id="path3117-1-7-8"
         style="fill:#ffffff;fill-opacity:1;fill-rule:nonzero;stroke:none"
         d="m 362.51642,543.81338 6.5138,21.9306 c 0.405,0 0.8104,-0.0358 1.2155,-0.1075 8.6283,-1.6497 19.0964,7.6527 21.8922,12.0493 l -10.5349,-34.4702 23.9062,0 -1.8232,-6.0324 -23.9063,0 c -2.8377,-10.2138 -22.2046,-61.3723 -15.5732,-67.3597 5.0751,-4.5822 19.2923,1.9806 28.1525,17.2537 l 4.8623,-2.8007 c -25.7516,-47.1571 -58.0181,-26.3695 -44.6309,18.6154 l 0.3197,0 0.2013,1.3697 c 0.2222,1.5134 0.6003,2.9877 1.1151,4.4277 1.1551,3.2301 2.9645,6.2227 4.828,9.0865 2.3355,3.589 4.7809,7.0747 7.0143,10.7357 1.7558,2.8777 3.9932,7.0157 2.8083,10.47 -0.902,2.6311 -3.4756,4.0527 -6.3607,4.8319" />
      <path
         inkscape:connector-curvature="0"
         id="path3119-7-4-8"
         style="fill:#ffffff;fill-opacity:1;fill-rule:nonzero;stroke:none"
         d="m 317.57632,459.27808 c 7.6949,2.5529 14.6599,7.3644 19.493,13.8347 6.3776,8.5386 7.2572,20.4072 -1.4735,27.8212 -3.5529,3.017 -7.4866,5.7062 -11.8006,8.0672 -0.8881,0.5247 -1.808,1.0493 -2.7595,1.5738 -0.9516,0.5246 -1.8715,1.0496 -2.7599,1.5743 -3.4259,1.9675 -6.3759,4.0006 -8.85,6.0993 -2.4744,2.0988 -3.7114,4.6568 -3.7114,7.6737 1.0936,13.572 33.7513,12.0274 48.3327,11.2629 8.3812,-0.0873 8.6785,-3.4189 6.4627,-8.1785 -4.3668,-9.3804 -8.041,-16.2791 -9.2591,-24.5123 l 0.2753,0 c 1.2758,8.6845 7.0469,14.8073 13.1751,24.8516 4.4887,7.357 5.5536,13.3279 -10.0137,13.8291 -17.71,0.6871 -40.3463,2.9038 -54.6105,-7.418 -8.752,-6.3335 -13.3507,-23.3184 -3.9742,-31.1831 7.0427,-5.9065 15.5106,-9.5655 22.744,-15.2484 4.167,-3.2743 5.9392,-10.7237 3.9342,-16.2162 -1.2625,-3.4585 -4.2341,-6.1072 -7.3703,-7.6178 -7.8336,-3.9217 -15.8173,-3.7134 -22.682,-0.3328 -34.6346,19.2444 -13.0414,52.9053 -5.29,64.7158 4.7721,7.2715 5.7413,13.328 -10.3521,13.8291 -18.3082,0.6872 -37.9268,2.9039 -52.6729,-7.4179 -9.0479,-6.3335 -13.8016,-23.3184 -4.1085,-31.1831 7.2805,-5.9066 16.035,-9.5655 23.5123,-15.2484 4.3078,-3.2741 6.1401,-10.7238 4.0674,-16.2162 -1.3051,-3.4583 -4.3773,-6.1072 -7.6195,-7.6178 -25.2239,-10.9267 -46.1203,12.5722 -48.5068,33.1789 0.7852,-14.8773 7.3744,-27.2732 17.2948,-34.4919 9.72,-7.073 22.1451,-8.1865 33.4508,-4.9003 7.9548,2.5529 15.1554,7.3641 20.1517,13.8345 6.5931,8.5382 7.5022,20.4075 -1.5236,27.8215 -3.6725,3.0166 -7.7388,5.7058 -12.1989,8.0668 -0.9181,0.5247 -1.8694,1.0497 -2.853,1.5741 -0.9837,0.5244 -1.9347,1.0494 -2.8528,1.5741 -3.5419,1.9675 -6.5914,4.0008 -9.1494,6.0996 -2.5577,2.0985 -3.8367,4.6564 -3.8367,7.6734 1.1307,13.572 31.1094,12.0276 46.1832,11.2631 8.6643,-0.0873 8.9716,-3.4191 6.6809,-8.1788 -5.3804,-11.1809 -23.3217,-54.0822 9.0525,-69.3521 8.1215,-3.2953 17.0456,-3.4206 25.4183,-0.9051" />
      <text
         y="-554.10968"
         x="200.15813"
         id="text3121-4-0-2"
         transform="scale(1,-1)"
         style="fill:#ffffff;fill-opacity:1;stroke:none">
        <tspan
           id="tspan3123-8-9-4"
           sodipodi:role="line"
           y="-554.10968"
           x="200.15813 232.04408 256.49988 268.98254"
           style="font-size:42.45800018px;font-variant:normal;writing-mode:lr-tb;fill:#ffffff;fill-opacity:1;fill-rule:nonzero;stroke:none;font-family:Eras Bold ITC;-inkscape-font-specification:ErasITC-Demi">UTIL</tspan>
      </text>
    </g>
  </g>
</svg>
