<?xml version="1.0" encoding="UTF-8" standalone="no"?>
<!-- Generator: Adobe Illustrator 16.0.0, SVG Export Plug-In . SVG Version: 6.00 Build 0)  -->

<svg
   xmlns:dc="http://purl.org/dc/elements/1.1/"
   xmlns:cc="http://creativecommons.org/ns#"
   xmlns:rdf="http://www.w3.org/1999/02/22-rdf-syntax-ns#"
   xmlns:svg="http://www.w3.org/2000/svg"
   xmlns="http://www.w3.org/2000/svg"
   xmlns:sodipodi="http://sodipodi.sourceforge.net/DTD/sodipodi-0.dtd"
   xmlns:inkscape="http://www.inkscape.org/namespaces/inkscape"
   version="1.1"
   id="Capa_1"
   x="0px"
   y="0px"
   width="32"
   height="32"
   viewBox="0 0 32 31.999999"
   xml:space="preserve"
   inkscape:version="0.48.4 r9939"
   sodipodi:docname="Utilizador.svg"><metadata
   id="metadata4647"><rdf:RDF><cc:Work
       rdf:about=""><dc:format>image/svg+xml</dc:format><dc:type
         rdf:resource="http://purl.org/dc/dcmitype/StillImage" /></cc:Work></rdf:RDF></metadata><defs
   id="defs4645">
	
</defs><sodipodi:namedview
   pagecolor="#ffffff"
   bordercolor="#666666"
   borderopacity="1"
   objecttolerance="10"
   gridtolerance="10"
   guidetolerance="10"
   inkscape:pageopacity="0"
   inkscape:pageshadow="2"
   inkscape:window-width="1280"
   inkscape:window-height="961"
   id="namedview4643"
   showgrid="false"
   inkscape:zoom="17.158533"
   inkscape:cx="16.432325"
   inkscape:cy="18.071944"
   inkscape:window-x="-8"
   inkscape:window-y="-8"
   inkscape:window-maximized="1"
   inkscape:current-layer="g4607" />
<g
   id="g4605"
   transform="matrix(0.03844104,0,0,0.03844104,4.102306,3.874806)">
		<g
   id="g4607">
			
			<g
   id="g4657"
   transform="translate(-1.7145022,4.2036389)"><path
     style="fill:#ffffff"
     d="m 312.461,430.406 c -95.338,0 -172.908,-77.564 -172.908,-172.908 V 172.913 C 139.559,77.57 217.124,0 312.461,0 407.81,0 485.38,77.57 485.38,172.913 v 84.58 c 0,95.343 -77.57,172.913 -172.919,172.913 z m 0,-403.004 c -80.233,0 -145.505,65.277 -145.505,145.511 v 84.58 c 0,80.233 65.272,145.505 145.505,145.505 80.239,0 145.517,-65.277 145.517,-145.505 v -84.58 C 457.978,92.68 392.701,27.402 312.461,27.402 z"
     id="path4609"
     inkscape:connector-curvature="0" /><path
     style="fill:#ffffff"
     d="M 543.812,622.439 H 78.616 c -40.473,0 -73.399,-32.932 -73.399,-73.41 V 484.58 c 0,-23.994 12.068,-56.109 69.569,-72.863 l 69.612,-19.252 c 7.3,-2.018 14.841,2.258 16.858,9.553 2.017,7.296 -2.264,14.841 -9.553,16.857 L 82.271,438.078 C 32.619,452.547 32.619,476.66 32.619,484.58 v 64.449 c 0,25.369 20.634,46.01 45.997,46.01 h 465.195 c 25.364,0 46.003,-20.641 46.003,-46.01 V 484.58 c 0,-21.379 -16.754,-37.043 -49.789,-46.539 l -66.21,-18.498 c -7.289,-2.037 -11.541,-9.596 -9.508,-16.885 2.038,-7.289 9.591,-11.553 16.885,-9.508 l 66.313,18.528 c 57.638,16.572 69.717,48.791 69.717,72.9 v 64.449 c -0.005,40.481 -32.931,73.412 -73.41,73.412 z"
     id="path4611"
     inkscape:connector-curvature="0" /></g>
		</g>
	</g>
<g
   id="g4613"
   transform="translate(0,-590.43903)">
</g>
<g
   id="g4615"
   transform="translate(0,-590.43903)">
</g>
<g
   id="g4617"
   transform="translate(0,-590.43903)">
</g>
<g
   id="g4619"
   transform="translate(0,-590.43903)">
</g>
<g
   id="g4621"
   transform="translate(0,-590.43903)">
</g>
<g
   id="g4623"
   transform="translate(0,-590.43903)">
</g>
<g
   id="g4625"
   transform="translate(0,-590.43903)">
</g>
<g
   id="g4627"
   transform="translate(0,-590.43903)">
</g>
<g
   id="g4629"
   transform="translate(0,-590.43903)">
</g>
<g
   id="g4631"
   transform="translate(0,-590.43903)">
</g>
<g
   id="g4633"
   transform="translate(0,-590.43903)">
</g>
<g
   id="g4635"
   transform="translate(0,-590.43903)">
</g>
<g
   id="g4637"
   transform="translate(0,-590.43903)">
</g>
<g
   id="g4639"
   transform="translate(0,-590.43903)">
</g>
<g
   id="g4641"
   transform="translate(0,-590.43903)">
</g>
</svg>